solid OpenSCAD_Model
  facet normal 1 0 0
    outer loop
      vertex 16.5 7.5 1.1
      vertex 16.5 3.27023 0.299999
      vertex 16.5 7.5 -1.1
    endloop
  endfacet
  facet normal 1 0 0
    outer loop
      vertex 16.5 7.5 1.1
      vertex 16.5 -3.27023 0.299999
      vertex 16.5 3.27023 0.299999
    endloop
  endfacet
  facet normal 1 -0 0
    outer loop
      vertex 16.5 -7.5 1.1
      vertex 16.5 -3.27023 0.299999
      vertex 16.5 7.5 1.1
    endloop
  endfacet
  facet normal 1 0 0
    outer loop
      vertex 16.5 -7.5 -1.1
      vertex 16.5 -3.27023 0.299999
      vertex 16.5 -7.5 1.1
    endloop
  endfacet
  facet normal 1 0 0
    outer loop
      vertex 16.5 -3.27023 0.299999
      vertex 16.5 -7.5 -1.1
      vertex 16.5 -3.27023 -1.1
    endloop
  endfacet
  facet normal 1 0 0
    outer loop
      vertex 16.5 7.5 -1.1
      vertex 16.5 3.27023 0.299999
      vertex 16.5 3.27023 -1.1
    endloop
  endfacet
  facet normal -0 0 1
    outer loop
      vertex 1.5 7.5 1.1
      vertex 16.5 -7.5 1.1
      vertex 16.5 7.5 1.1
    endloop
  endfacet
  facet normal 0 0 1
    outer loop
      vertex 16.5 -7.5 1.1
      vertex 1.5 7.5 1.1
      vertex 1.5 -7.5 1.1
    endloop
  endfacet
  facet normal -1 0 0
    outer loop
      vertex 1.5 -7.5 -1.1
      vertex 1.5 7.5 1.1
      vertex 1.5 7.5 -1.1
    endloop
  endfacet
  facet normal -1 -0 0
    outer loop
      vertex 1.5 7.5 1.1
      vertex 1.5 -7.5 -1.1
      vertex 1.5 -7.5 1.1
    endloop
  endfacet
  facet normal 0 -1 0
    outer loop
      vertex 1.5 -7.5 -1.1
      vertex 16.5 -7.5 1.1
      vertex 1.5 -7.5 1.1
    endloop
  endfacet
  facet normal 0 -1 -0
    outer loop
      vertex 16.5 -7.5 1.1
      vertex 1.5 -7.5 -1.1
      vertex 16.5 -7.5 -1.1
    endloop
  endfacet
  facet normal 0 0 -1
    outer loop
      vertex 16.5 -7.5 -1.1
      vertex 13.9714 -4.7301 -1.1
      vertex 16.5 -3.27023 -1.1
    endloop
  endfacet
  facet normal -0 0 -1
    outer loop
      vertex 13.9714 -4.7301 -1.1
      vertex 1.5 -7.5 -1.1
      vertex 13.9714 4.7301 -1.1
    endloop
  endfacet
  facet normal 0 0 -1
    outer loop
      vertex 1.5 -7.5 -1.1
      vertex 13.9714 -4.7301 -1.1
      vertex 16.5 -7.5 -1.1
    endloop
  endfacet
  facet normal 0 0 -1
    outer loop
      vertex 13.9714 4.7301 -1.1
      vertex 16.5 7.5 -1.1
      vertex 16.5 3.27023 -1.1
    endloop
  endfacet
  facet normal 0 0 -1
    outer loop
      vertex 1.5 7.5 -1.1
      vertex 13.9714 4.7301 -1.1
      vertex 1.5 -7.5 -1.1
    endloop
  endfacet
  facet normal 0 0 -1
    outer loop
      vertex 13.9714 4.7301 -1.1
      vertex 1.5 7.5 -1.1
      vertex 16.5 7.5 -1.1
    endloop
  endfacet
  facet normal 0 1 -0
    outer loop
      vertex 16.5 7.5 -1.1
      vertex 1.5 7.5 1.1
      vertex 16.5 7.5 1.1
    endloop
  endfacet
  facet normal 0 1 0
    outer loop
      vertex 1.5 7.5 1.1
      vertex 16.5 7.5 -1.1
      vertex 1.5 7.5 -1.1
    endloop
  endfacet
  facet normal 1 -0 0
    outer loop
      vertex 13.9714 -4.7301 0.299999
      vertex 13.9714 4.7301 -1.1
      vertex 13.9714 4.7301 0.299999
    endloop
  endfacet
  facet normal 1 0 0
    outer loop
      vertex 13.9714 4.7301 -1.1
      vertex 13.9714 -4.7301 0.299999
      vertex 13.9714 -4.7301 -1.1
    endloop
  endfacet
  facet normal -0.5 -0.866025 0
    outer loop
      vertex 13.9714 4.7301 -1.1
      vertex 16.5 3.27023 0.299999
      vertex 13.9714 4.7301 0.299999
    endloop
  endfacet
  facet normal -0.5 -0.866025 -0
    outer loop
      vertex 16.5 3.27023 0.299999
      vertex 13.9714 4.7301 -1.1
      vertex 16.5 3.27023 -1.1
    endloop
  endfacet
  facet normal 0 0 -1
    outer loop
      vertex 13.9714 -4.7301 0.299999
      vertex 16.5 3.27023 0.299999
      vertex 16.5 -3.27023 0.299999
    endloop
  endfacet
  facet normal -0 0 -1
    outer loop
      vertex 16.5 3.27023 0.299999
      vertex 13.9714 -4.7301 0.299999
      vertex 13.9714 4.7301 0.299999
    endloop
  endfacet
  facet normal -0.5 0.866025 0
    outer loop
      vertex 16.5 -3.27023 -1.1
      vertex 13.9714 -4.7301 0.299999
      vertex 16.5 -3.27023 0.299999
    endloop
  endfacet
  facet normal -0.5 0.866025 0
    outer loop
      vertex 13.9714 -4.7301 0.299999
      vertex 16.5 -3.27023 -1.1
      vertex 13.9714 -4.7301 -1.1
    endloop
  endfacet
  facet normal -1 0 0
    outer loop
      vertex -16.5 -2.88675 -1.1
      vertex -16.5 -7.5 -1.1
      vertex -16.5 -2.88675 0
    endloop
  endfacet
  facet normal -1 0 0
    outer loop
      vertex -16.5 2.88675 0
      vertex -16.5 7.5 -1.1
      vertex -16.5 2.88675 -1.1
    endloop
  endfacet
  facet normal -1 0 0
    outer loop
      vertex -16.5 7.5 -1.1
      vertex -16.5 2.88675 0
      vertex -16.5 7.5 1.1
    endloop
  endfacet
  facet normal -1 0 0
    outer loop
      vertex -16.5 -2.88675 0
      vertex -16.5 7.5 1.1
      vertex -16.5 2.88675 0
    endloop
  endfacet
  facet normal -1 0 0
    outer loop
      vertex -16.5 -2.88675 0
      vertex -16.5 -7.5 1.1
      vertex -16.5 7.5 1.1
    endloop
  endfacet
  facet normal -1 0 0
    outer loop
      vertex -16.5 -7.5 1.1
      vertex -16.5 -2.88675 0
      vertex -16.5 -7.5 -1.1
    endloop
  endfacet
  facet normal -0 0 1
    outer loop
      vertex -16.5 7.5 1.1
      vertex -1.5 -7.5 1.1
      vertex -1.5 7.5 1.1
    endloop
  endfacet
  facet normal 0 0 1
    outer loop
      vertex -1.5 -7.5 1.1
      vertex -16.5 7.5 1.1
      vertex -16.5 -7.5 1.1
    endloop
  endfacet
  facet normal 1 -0 0
    outer loop
      vertex -1.5 -7.5 1.1
      vertex -1.5 7.5 -1.1
      vertex -1.5 7.5 1.1
    endloop
  endfacet
  facet normal 1 0 0
    outer loop
      vertex -1.5 7.5 -1.1
      vertex -1.5 -7.5 1.1
      vertex -1.5 -7.5 -1.1
    endloop
  endfacet
  facet normal 0 1 -0
    outer loop
      vertex -1.5 7.5 -1.1
      vertex -16.5 7.5 1.1
      vertex -1.5 7.5 1.1
    endloop
  endfacet
  facet normal 0 1 0
    outer loop
      vertex -16.5 7.5 1.1
      vertex -1.5 7.5 -1.1
      vertex -16.5 7.5 -1.1
    endloop
  endfacet
  facet normal 0 0 -1
    outer loop
      vertex -19 -4.33013 -1.1
      vertex -16.5 2.88675 -1.1
      vertex -16.5 -2.88675 -1.1
    endloop
  endfacet
  facet normal -0 0 -1
    outer loop
      vertex -16.5 2.88675 -1.1
      vertex -19 -4.33013 -1.1
      vertex -19 4.33013 -1.1
    endloop
  endfacet
  facet normal 0 0 -1
    outer loop
      vertex -16.5 -2.88675 -1.1
      vertex -1.5 -7.5 -1.1
      vertex -16.5 -7.5 -1.1
    endloop
  endfacet
  facet normal 0 0 -1
    outer loop
      vertex -1.5 -7.5 -1.1
      vertex -16.5 -2.88675 -1.1
      vertex -1.5 7.5 -1.1
    endloop
  endfacet
  facet normal 0 0 -1
    outer loop
      vertex -16.5 2.88675 -1.1
      vertex -1.5 7.5 -1.1
      vertex -16.5 -2.88675 -1.1
    endloop
  endfacet
  facet normal -0 0 -1
    outer loop
      vertex -1.5 7.5 -1.1
      vertex -16.5 2.88675 -1.1
      vertex -16.5 7.5 -1.1
    endloop
  endfacet
  facet normal 0 -1 0
    outer loop
      vertex -16.5 -7.5 -1.1
      vertex -1.5 -7.5 1.1
      vertex -16.5 -7.5 1.1
    endloop
  endfacet
  facet normal 0 -1 -0
    outer loop
      vertex -1.5 -7.5 1.1
      vertex -16.5 -7.5 -1.1
      vertex -1.5 -7.5 -1.1
    endloop
  endfacet
  facet normal -1 0 0
    outer loop
      vertex -19 -4.33013 -1.1
      vertex -19 4.33013 0
      vertex -19 4.33013 -1.1
    endloop
  endfacet
  facet normal -1 -0 0
    outer loop
      vertex -19 4.33013 0
      vertex -19 -4.33013 -1.1
      vertex -19 -4.33013 0
    endloop
  endfacet
  facet normal 0.5 0.866025 -0
    outer loop
      vertex -16.5 2.88675 -1.1
      vertex -19 4.33013 0
      vertex -16.5 2.88675 0
    endloop
  endfacet
  facet normal 0.5 0.866025 0
    outer loop
      vertex -19 4.33013 0
      vertex -16.5 2.88675 -1.1
      vertex -19 4.33013 -1.1
    endloop
  endfacet
  facet normal 0.5 -0.866025 0
    outer loop
      vertex -19 -4.33013 -1.1
      vertex -16.5 -2.88675 0
      vertex -19 -4.33013 0
    endloop
  endfacet
  facet normal 0.5 -0.866025 0
    outer loop
      vertex -16.5 -2.88675 0
      vertex -19 -4.33013 -1.1
      vertex -16.5 -2.88675 -1.1
    endloop
  endfacet
  facet normal 0 0 1
    outer loop
      vertex -19 4.33013 0
      vertex -16.5 -2.88675 0
      vertex -16.5 2.88675 0
    endloop
  endfacet
  facet normal 0 0 1
    outer loop
      vertex -16.5 -2.88675 0
      vertex -19 4.33013 0
      vertex -19 -4.33013 0
    endloop
  endfacet
endsolid OpenSCAD_Model
